<svg width="19" height="19" viewBox="0 0 19 19" fill="none" xmlns="http://www.w3.org/2000/svg">
<path d="M8.69213 2.19954C9.05858 1.59063 9.94137 1.59063 10.3078 2.19954L12.1389 5.24215C12.2705 5.4609 12.4853 5.61691 12.734 5.67452L16.1935 6.47575C16.8859 6.6361 17.1587 7.47569 16.6928 8.01237L14.3649 10.694C14.1976 10.8868 14.1155 11.1393 14.1376 11.3936L14.4447 14.9314C14.5061 15.6394 13.7919 16.1583 13.1375 15.8811L9.86777 14.4959C9.63269 14.3963 9.36726 14.3963 9.13217 14.4959L5.86241 15.8811C5.20804 16.1583 4.49384 15.6394 4.55529 14.9314L4.86232 11.3936C4.8844 11.1393 4.80238 10.8868 4.63501 10.694L2.30715 8.01237C1.84128 7.47569 2.11408 6.6361 2.80643 6.47575L6.26595 5.67452C6.51468 5.61691 6.72941 5.4609 6.86106 5.24215L8.69213 2.19954Z" fill="white" stroke="white" stroke-width="1.17857"/>
</svg>
